<?xml version="1.0" encoding="UTF-8"?>
<svg id="Layer_1" data-name="Layer 1" xmlns="http://www.w3.org/2000/svg" viewBox="0 0 1200 1200">
  <path d="M1153.73,362.34c-30.59-71.63-72.84-135.18-125.7-188.98-53.21-53.99-117.17-96.41-190.02-126.31-144.48-59.28-326.87-60.16-473.95,0-72.5,29.81-136.66,72.23-190.92,126.22-53.88,54.08-96.64,117.7-126.92,189.07C15.63,434.57,0,514.46,0,599.83s15.63,163.53,46.22,236.19c30.28,72.4,73.04,136.57,126.92,190.65,54.09,53.72,118.26,96.13,190.92,126.04,72.85,29.91,152.29,45.04,235.91,45.04s165.21-15.13,238.04-45.04c73.03-29.9,136.98-72.4,190.02-126.39,52.86-53.64,95.1-117.62,125.7-190.21,30.63-72.75,46.27-152.22,46.27-236.27s-15.64-165.26-46.27-237.49ZM729.53,51.82c81.62,19.49,158.88,58.01,223.53,111.2l-40.35,49.06c-57.32-47-125.87-80.93-197.86-98.36l14.67-61.9ZM480.09,49.3l13.76,62.36c-72.22,15.59-141,48.38-199.46,94.46l-39.44-49.98c65.8-52.05,143.75-88.96,225.14-106.84ZM42.87,593.58c0-85.29,18.8-167.13,55.72-243.02l57.31,27.97c-32.78,67.17-49.29,139.62-49.29,215.05h-63.74ZM239.13,1018.18c-63.96-54.57-115.55-123.58-149.02-199.69l58.23-25.68c29.81,67.4,75.43,128.62,132.05,176.77l-41.27,48.61ZM599.99,1150.7c-47.23,0-94-5.96-139.39-17.43l16.05-61.9c71.07,18.34,149.03,20.18,220.78,6.19l12.38,62.36c-35.76,7.1-72.68,10.77-109.82,10.77ZM599.99,1039.5c-245.78,0-445.92-200.15-445.92-445.92s200.15-445.92,445.92-445.92,445.92,200.15,445.92,445.92-200.15,445.92-445.92,445.92ZM937.01,1037.21l-38.51-50.9c59.15-44.94,107.98-103.4,141.46-169.43l56.86,28.88c-37.6,74.51-93.08,140.77-159.8,191.44ZM1093.37,602.98v-9.4c.23-71.99-15.13-141.69-45.39-207.03l57.78-27.05c34.38,74.05,51.58,152.69,51.35,234.08v9.4h-63.73Z"/>
  <path d="M599.99,192.82c-220.89,0-400.75,179.87-400.75,400.75s179.86,400.75,400.75,400.75,400.75-179.86,400.75-400.75-179.87-400.75-400.75-400.75ZM227.69,525.55l66.49-66.48,210.58,211.15,216.42-212.76,65.8,66.95-282.91,278.1-276.38-276.96ZM599.21,902.92l-66.02-66.94,312.49-308.13-99.39-99.5h-59.84l-183.99,182.95-180.44-182.72,98.58-94.23h98.93v94l-63.62,2.06,47.23,47.92,144.55-143.98h137.33l193.85,193.96-379.67,374.62Z"/>
</svg>